{"asset":{"version":"2.0","generator":"THREE.GLTFExporter"},"scenes":[{"nodes":[0],"name":"AuxScene"}],"scene":0,"nodes":[{"mesh":0}],"bufferViews":[{"buffer":0,"byteOffset":0,"byteLength":133704,"target":34962,"byteStride":12},{"buffer":0,"byteOffset":133704,"byteLength":133704,"target":34962,"byteStride":12}],"buffers":[{"byteLength":267408,"uri":"data:application/octet-stream;base64,"}],"accessors":[{"bufferView":0,"componentType":5126,"count":11142,"max":[100.61190795898438,14.9959716796875,100.61190795898438],"min":[-100.78809356689453,0.19596900045871735,-100.78809356689453],"type":"VEC3"},{"bufferView":1,"componentType":5126,"count":11142,"max":[0.993683934211731,1,0.9847323894500732],"min":[-0.9903759360313416,0.027289187535643578,-0.9644348621368408],"type":"VEC3"}],"materials":[{"pbrMetallicRoughness":{"baseColorFactor":[0.5019607843137255,0.5019607843137255,0.5019607843137255,1],"metallicFactor":0,"roughnessFactor":1}}],"meshes":[{"primitives":[{"mode":4,"attributes":{"POSITION":0,"NORMAL":1},"material":0}]}]}